<svg width="38" height="38" viewBox="0 0 38 38" fill="none" xmlns="http://www.w3.org/2000/svg">
<rect x="1.5" y="1.5" width="35" height="35" rx="17.5" fill="#0D0E0F"/>
<rect x="1.5" y="1.5" width="35" height="35" rx="17.5" stroke="white" stroke-width="3"/>
<path d="M24.267 23.9468C24.301 24.1488 24.145 24.3335 23.9403 24.3335H14.0604C13.855 24.3335 13.699 24.1488 13.7337 23.9468L14.0057 22.3335C14.0217 22.2375 14.105 22.1668 14.203 22.1668H23.7984C23.8957 22.1668 23.979 22.2375 23.9957 22.3335L24.267 23.9468ZM23.9937 16.0202L22.327 17.0268C22.0257 17.2088 21.6343 17.1208 21.4403 16.8268L19.5477 13.9608C19.289 13.5688 18.7137 13.5682 18.4537 13.9602L16.5604 16.8202C16.367 17.1202 15.9737 17.2068 15.667 17.0202L14.007 16.0202C13.5137 15.7202 12.9004 16.1468 13.0137 16.7135L13.9783 21.0108C13.999 21.1022 14.0797 21.1668 14.1737 21.1668H23.827C23.9203 21.1668 24.0017 21.1022 24.0224 21.0108L24.987 16.7135C25.1003 16.1468 24.487 15.7202 23.9937 16.0202Z" fill="#FFBF00"/>
</svg>
