<svg width="26" height="24" viewBox="0 0 26 24" fill="none" xmlns="http://www.w3.org/2000/svg">
<path d="M1.82614 24C1.17836 24 0.724922 23.8057 0.465812 23.417C0.206703 22.9636 0.0771484 22.413 0.0771484 21.7652V7.28745C0.0771484 5.21457 0.498201 3.65992 1.34031 2.62348C2.24719 1.52227 3.31601 0.809716 4.54678 0.485829C5.84233 0.161943 7.00832 0 8.04476 0C8.82209 0 9.40508 0.0323882 9.79375 0.0971647C10.2472 0.0971647 10.6035 0.129555 10.8626 0.194335V4.66397C9.76136 4.66397 9.04881 4.92308 8.72492 5.44129C8.46581 5.95951 8.33626 6.54251 8.33626 7.19028V10.6883H9.21075C9.79375 10.6883 10.2796 10.8502 10.6682 11.1741C11.0569 11.498 11.2512 12.0162 11.2512 12.7287V21.7652C11.2512 23.2551 10.5711 24 9.21075 24H1.82614ZM16.4982 24C15.8504 24 15.397 23.8057 15.1379 23.417C14.8788 22.9636 14.7492 22.413 14.7492 21.7652V7.28745C14.7492 5.21457 15.1703 3.65992 16.0124 2.62348C16.9193 1.52227 17.9881 0.809716 19.2188 0.485829C20.5144 0.161943 21.6804 0 22.7168 0C23.4942 0 24.0771 0.0323882 24.4658 0.0971647C24.9193 0.0971647 25.2755 0.129555 25.5346 0.194335V4.66397C24.4334 4.66397 23.7209 4.92308 23.397 5.44129C23.1379 5.95951 23.0083 6.54251 23.0083 7.19028V10.6883H23.8828C24.4658 10.6883 24.9516 10.8502 25.3403 11.1741C25.729 11.498 25.9233 12.0162 25.9233 12.7287V21.7652C25.9233 23.2551 25.2431 24 23.8828 24H16.4982Z" fill="#003F57"/>
</svg>
