<svg width="48" height="48" viewBox="0 0 48 48" fill="none" xmlns="http://www.w3.org/2000/svg">
<rect width="48" height="48" rx="24" fill="#809FAB" fill-opacity="0.2"/>
<path d="M29.4163 28.333V33.2329C29.4163 33.9993 28.6423 34.5234 27.9307 34.2387L24.402 32.8273C24.1437 32.724 23.8556 32.724 23.5973 32.8273L20.0687 34.2387C19.3571 34.5234 18.583 33.9993 18.583 33.2329V28.333" stroke="#003F57" stroke-width="1.5" stroke-linejoin="round"/>
<path d="M22.4747 13.7286C23.3534 12.9798 24.6459 12.9798 25.5247 13.7286L26.2996 14.389C26.6762 14.7099 27.1444 14.9039 27.6376 14.9432L28.6524 15.0242C29.8034 15.1161 30.7173 16.03 30.8091 17.1809L30.8901 18.1958C30.9295 18.689 31.1234 19.1572 31.4443 19.5338L32.1047 20.3087C32.8536 21.1874 32.8536 22.4799 32.1047 23.3587L31.4443 24.1336C31.1234 24.5101 30.9295 24.9783 30.8901 25.4715L30.8091 26.4864C30.7173 27.6373 29.8034 28.5513 28.6524 28.6431L27.6376 28.7241C27.1444 28.7634 26.6762 28.9574 26.2996 29.2783L25.5247 29.9387C24.6459 30.6875 23.3534 30.6875 22.4747 29.9387L21.6998 29.2783C21.3232 28.9574 20.855 28.7634 20.3618 28.7241L19.3469 28.6431C18.196 28.5513 17.2821 27.6373 17.1902 26.4864L17.1092 25.4715C17.0699 24.9783 16.8759 24.5101 16.555 24.1336L15.8947 23.3587C15.1458 22.4799 15.1458 21.1874 15.8947 20.3087L16.555 19.5338C16.8759 19.1572 17.0699 18.689 17.1092 18.1958L17.1902 17.1809C17.2821 16.03 18.196 15.1161 19.3469 15.0242L20.3618 14.9432C20.855 14.9039 21.3232 14.7099 21.6998 14.389L22.4747 13.7286Z" stroke="#003F57" stroke-width="1.5"/>
</svg>
