<svg width="25" height="24" viewBox="0 0 25 24" fill="none" xmlns="http://www.w3.org/2000/svg">
<path d="M12.5 22C18.0229 22 22.5 17.5228 22.5 12C22.5 6.47715 18.0229 2 12.5 2C6.97718 2 2.50003 6.47715 2.50003 12C2.50003 13.5114 2.83535 14.9446 3.43565 16.229L2.72301 20.6245C2.6135 21.3 3.19954 21.8834 3.87452 21.7709L8.22984 21.045C9.52483 21.6575 10.9724 22 12.5 22Z" stroke="white" stroke-width="1.5" stroke-linecap="square" stroke-linejoin="round"/>
<path d="M16.5 15.1111V14.6749C16.5 14.1331 16.1701 13.6458 15.667 13.4446L15.2005 13.258C14.6789 13.0494 14.0845 13.2753 13.8333 13.7778C13.8333 13.7778 12.7222 13.5556 11.8333 12.6667C10.9444 11.7778 10.7222 10.6667 10.7222 10.6667C11.2247 10.4155 11.4506 9.82105 11.242 9.29949L11.0554 8.83296C10.8542 8.32988 10.3669 8 9.82509 8H9.38889C8.89797 8 8.5 8.39797 8.5 8.88889C8.5 12.8162 11.6838 16 15.6111 16C16.102 16 16.5 15.602 16.5 15.1111Z" fill="white"/>
</svg>
